# xmcd
#
# Track frame offsets:
#	150
#	13890
#	33567
#	55472
#	71177
#	88575
#	104162
#	118865
#	136225
#	150522
#
# Disc length: 2208 seconds
#
# Revision: 3
# Processed by: cddbd v1.5.2PL0 Copyright (c) Steve Scherf et al.
# Submitted via: audiograbber 1.83.01
#
DISCID=91089e0a
DTITLE=Various Artist - Grade A - Choice Country Cuts
DYEAR=1999
DGENRE=Oldies
TTITLE0=Diamond Rio - Norma Jean Riley
TTITLE1=Clint Black - Like The Rain
TTITLE2=Brooks and Dunn - You're Gonna Miss Me When I'm Gone
TTITLE3=Kenny Chesney - When I Close My Eyes
TTITLE4=Alan Jackson - I'll Try
TTITLE5=Mindy McCready - Ten Thousand Angels
TTITLE6=Andy Griggs - You Made Me That Way
TTITLE7=Brad Paisley - Who Needs Pictures
TTITLE8=Jason Sellers - Everybody's Walking
TTITLE9=Sherrie Austin - Wild Ride
EXTD=
EXTT0=
EXTT1=
EXTT2=
EXTT3=
EXTT4=
EXTT5=
EXTT6=
EXTT7=
EXTT8=
EXTT9=
PLAYORDER=
